<?xml version="1.0"?>
<svg xmlns="http://www.w3.org/2000/svg" width="512" height="512" viewBox="0 0 128 128"><g><path d="M62.38,69.361a4.941,4.941,0,0,1-3.739-3.728,14.869,14.869,0,0,0-4.114-7.79,8.631,8.631,0,0,0-8.283-2.291c-2.487.7-5.791,2.927-7.427,9.649a19.953,19.953,0,0,0-.074,7.353,4.971,4.971,0,0,1-1.431,4.3L5.263,108.9a1.748,1.748,0,0,0,0,2.474l11.36,11.36a1.748,1.748,0,0,0,2.474,0L51.148,90.688a4.965,4.965,0,0,1,4.3-1.432,19.96,19.96,0,0,0,7.354-.073l.055-.013c6.667-1.623,8.9-4.927,9.594-7.414a8.634,8.634,0,0,0-2.288-8.28A14.865,14.865,0,0,0,62.38,69.361Zm6.7,11.451c-.627,2.237-3.121,4-7.024,4.951a16.772,16.772,0,0,1-6.04.04,8.472,8.472,0,0,0-7.341,2.41L17.86,119.025,8.975,110.14,39.787,79.328A8.479,8.479,0,0,0,42.2,71.985a16.736,16.736,0,0,1,.034-6.011c.955-3.919,2.715-6.424,4.958-7.052a5.182,5.182,0,0,1,4.868,1.4,11.544,11.544,0,0,1,3.166,6.059,8.464,8.464,0,0,0,6.411,6.4,11.538,11.538,0,0,1,6.05,3.166A5.183,5.183,0,0,1,69.078,80.812Z"/><path d="M122.737,16.623l-11.36-11.36a1.749,1.749,0,0,0-2.475,0L76.853,37.313a4.983,4.983,0,0,1-4.3,1.43,19.98,19.98,0,0,0-7.408.087c-6.667,1.623-8.9,4.927-9.594,7.414a8.636,8.636,0,0,0,2.287,8.28,14.872,14.872,0,0,0,7.781,4.115,4.944,4.944,0,0,1,3.739,3.728,14.869,14.869,0,0,0,4.114,7.79,8.817,8.817,0,0,0,6.169,2.577,7.833,7.833,0,0,0,2.115-.286c2.485-.7,5.79-2.927,7.426-9.649a19.974,19.974,0,0,0,.074-7.353,4.975,4.975,0,0,1,1.43-4.3l32.05-32.05a1.748,1.748,0,0,0,0-2.474ZM88.213,48.672A8.48,8.48,0,0,0,85.8,56.015a16.713,16.713,0,0,1-.034,6.011c-.955,3.919-2.715,6.423-4.958,7.052a5.188,5.188,0,0,1-4.868-1.4,11.551,11.551,0,0,1-3.166-6.06,8.464,8.464,0,0,0-6.411-6.4,11.538,11.538,0,0,1-6.05-3.166,5.183,5.183,0,0,1-1.4-4.865c.628-2.243,3.133-4,7-4.945a14.86,14.86,0,0,1,3.044-.3,18.536,18.536,0,0,1,3.022.254,8.482,8.482,0,0,0,7.342-2.41L110.14,8.975l8.885,8.885Z"/><path d="M102.783,25.617l-6.166,6.167a1.75,1.75,0,1,0,2.475,2.474l6.166-6.167a1.75,1.75,0,1,0-2.475-2.474Z"/><path d="M41.346,43.821a1.75,1.75,0,1,0,2.475-2.475l-9.084-9.083a1.749,1.749,0,0,0-2.474,2.474Z"/><path d="M49.862,37.157a1.75,1.75,0,1,0,3.185-1.449l-5.32-11.692a1.75,1.75,0,1,0-3.185,1.449Z"/><path d="M24.016,47.727l11.692,5.32a1.75,1.75,0,1,0,1.449-3.185l-11.692-5.32a1.75,1.75,0,0,0-1.449,3.185Z"/><path d="M86.654,84.179a1.75,1.75,0,0,0-2.474,2.475l9.083,9.083a1.749,1.749,0,0,0,2.474-2.474Z"/><path d="M103.984,80.273l-11.692-5.32a1.75,1.75,0,0,0-1.449,3.185l11.692,5.32a1.75,1.75,0,1,0,1.449-3.185Z"/><path d="M78.138,90.842a1.75,1.75,0,0,0-3.186,1.45l5.321,11.692a1.75,1.75,0,0,0,3.186-1.45Z"/></g></svg>
