<svg id="Capa_1" enable-background="new 0 0 512 512" height="512" viewBox="0 0 512 512" width="512" xmlns="http://www.w3.org/2000/svg"><g><path d="m501.526 225.732c6.875-8.848 10.474-18.539 10.474-28.729 0-17.929-12.212-34.417-32.899-47.398 10.928-35.681-24.264-61.534-59.889-73.983 1.178-4.465 1.788-9.015 1.788-13.619 0-21.961-13.711-44.199-36.678-59.487-6.895-4.589-16.208-2.721-20.798 4.175s-2.721 16.208 4.175 20.798c14.373 9.568 23.301 22.793 23.301 34.514 0 22.331-33.085 44.193-78.901 54.203 15.374-46.386-15.198-84.203-54.328-84.203h-3.541c-39.258 0-69.659 37.865-54.325 84.204-45.818-10.009-78.905-31.873-78.905-54.204 0-11.722 8.928-24.946 23.301-34.513 6.896-4.591 8.765-13.902 4.174-20.798-4.59-6.896-13.903-8.766-20.798-4.175-22.966 15.287-36.677 37.525-36.677 59.486 0 4.604.61 9.153 1.788 13.619-35.517 12.411-70.835 38.244-59.889 73.983-20.687 12.981-32.899 29.47-32.899 47.398 0 10.19 3.599 19.881 10.474 28.729-6.881 9.661-10.474 20.269-10.474 31.271 0 15.044 7.747 28.92 19.491 40.542-9.038 24.646-.976 55.144 28.353 73.904-2.987 20.996-.774 42.168 13.156 58.286v17.043c0 28.185 17.721 53.641 43.095 61.903 38.456 12.525 76.924-11.837 83.428-49.579l13.054-61.45c2.311-10.879 8.572-20.371 17.275-26.823 7.963 12.703 22.082 21.173 38.149 21.173 16.078 0 30.206-8.482 38.166-21.2 8.641 6.392 14.989 15.971 17.302 26.802l12.571 58.871c4.781 27.829 25.364 49.683 51.319 54.436 39.685 7.27 75.641-22.872 75.641-62.632v-18.543c13.947-16.155 16.139-37.321 13.156-58.287 29.208-18.682 37.422-49.17 28.353-73.904 11.744-11.621 19.491-25.498 19.491-40.542 0-11.002-3.593-21.61-10.474-31.271zm-19.526 31.271c0 21.284-37.962 45-91 45-29.884 0-64.806-7.585-89.996-19.251l.001-16.782c18.754 3.963 39.145 6.033 59.995 6.033 37.916 0 85.12-7.044 117.534-26.634 2.039 3.437 3.466 7.361 3.466 11.634zm-121-15c-21.161 0-41.665-2.339-59.992-6.791l.002-24.629c9.815.943 19.848 1.42 29.991 1.42 42.185 0 100.14-9.255 131.336-37.508 11.845 7.213 19.663 15.296 19.663 22.508 0 26.246-68.163 45-121 45zm43.375-139.705c31.95 10.024 46.625 24.61 46.625 34.705 0 26.246-67.163 45-120 45-10.185 0-20.221-.54-29.989-1.586.034-2.837-.207-19.437.636-31.789 35.862-5.439 78.799-19.285 102.728-46.33zm-374.375 154.705c0-4.273 1.427-8.198 3.466-11.634 32.444 19.608 79.677 26.634 117.534 26.634 20.854 0 41.249-2.071 60.006-6.036l-.001 16.78c-25.19 11.668-60.117 19.255-90.004 19.255-53.039.001-91.001-23.714-91.001-44.999zm77.625-154.705c23.969 27.09 66.973 40.903 102.696 46.326.911 12.9.658 29.293.69 31.791-9.775 1.047-19.819 1.588-30.011 1.588-54.554 0-120-19.37-120-45 0-10.095 14.675-24.681 46.625-34.705zm-57.961 72.197c31.225 28.279 86.54 37.508 131.336 37.508 10.149 0 20.189-.477 30.009-1.422l-.002 24.628c-18.331 4.454-38.84 6.794-60.008 6.794-54.554 0-121-19.37-121-45 .001-7.212 7.819-15.295 19.665-22.508zm-3.638 141.479c20.406 10.075 46.371 16.03 74.974 16.03 29.636 0 62.714-6.317 90.002-16.734l-.002 24.688c-8.47 4.255-16.002 10.052-22.239 17.014-48.882 7.031-142.761 9.127-142.761-39.969 0-.343.013-.686.026-1.029zm88.511 75.265c9.987 0 20.552-.491 31.645-1.455-.108.726-.182 1.463-.182 2.22 0 16.262-20.607 30-45 30-28.757 0-45.63-9.345-44.369-37.904 18.504 5.36 38.631 7.139 57.906 7.139zm-21.154 88.918c-12.778-4.161-21.793-17.196-22.332-31.985 8.79 2.535 18.771 3.832 29.949 3.832 14.037 0 27.541-3.068 39.224-8.768-8.613 27.819-19.016 45.983-46.841 36.921zm142.617-118.154c-8.271 0-15-6.729-15-14.999 0 0 .012-178.243.01-178.32-.501-32.959-2.171-39.543-9.094-53.389-15.614-31.227 1.388-53.292 22.313-53.292h3.541c20.823 0 38.019 21.88 22.313 53.292-6.873 13.745-8.533 20.13-9.069 51.36l-.002 180.348c0 8.271-6.741 15-15.012 15zm124.763 119.4c-26.175-4.795-27.612-35.217-28.862-38.108 11.654 5.661 25.111 8.708 39.099 8.708 11.2 0 21.198-1.302 30-3.847v.123c0 20.415-18.31 37.137-40.237 33.124zm10.237-59.4c-24.393 0-45-13.738-45-30 0-.756-.074-1.493-.182-2.219 11.093.963 21.657 1.455 31.645 1.455 19.268 0 39.399-1.777 57.906-7.139 1.214 27.485-14.615 37.903-44.369 37.903zm-67.701-65.023c-6.252-6.98-13.804-12.79-22.298-17.049l.002-24.66c27.288 10.415 60.363 16.732 89.998 16.732 28.603 0 54.568-5.955 74.974-16.03.014.343.026.687.026 1.03-.001 49.063-93.777 47.01-142.702 39.977z"/></g></svg>