<svg height="512pt" viewBox="0 -42 512 511" width="512pt" xmlns="http://www.w3.org/2000/svg"><path d="m81.308594 49.777344c2.632812 0 5.210937-1.070313 7.070312-2.929688 1.859375-1.863281 2.929688-4.441406 2.929688-7.070312 0-2.640625-1.070313-5.210938-2.929688-7.082032-1.859375-1.859374-4.4375-2.917968-7.070312-2.917968-2.628906 0-5.207032 1.058594-7.070313 2.917968-1.859375 1.871094-2.929687 4.441407-2.929687 7.082032 0 2.628906 1.070312 5.207031 2.929687 7.070312 1.863281 1.859375 4.441407 2.929688 7.070313 2.929688zm0 0"/><path d="m502 210.804688h-25.007812c9.988281-20.527344 15.007812-39.582032 15.007812-57.082032 0-84.488281-63.210938-153.222656-140.90625-153.222656-35.164062 0-69.257812 14.511719-95.09375 40.160156-25.835938-25.648437-59.929688-40.160156-95.09375-40.160156-14.980469 0-29.734375 2.542969-43.847656 7.5625-5.203125 1.851562-7.921875 7.570312-6.074219 12.773438 1.851563 5.203124 7.570313 7.917968 12.773437 6.070312 11.957032-4.25 24.457032-6.40625 37.144532-6.40625 33.386718 0 64.472656 14.683594 87.535156 41.34375 1.898438 2.195312 4.660156 3.460938 7.5625 3.460938s5.664062-1.265626 7.5625-3.460938c23.058594-26.660156 54.144531-41.34375 87.53125-41.34375 66.667969 0 120.90625 59.761719 120.90625 133.222656 0 16.785156-5.964844 35.949219-17.589844 57.082032h-91.09375c-2.644531 0-5.179687 1.046874-7.054687 2.910156l-21.238281 21.136718-21.070313-21.113281c-2.457031-2.460937-6.023437-3.46875-9.40625-2.660156-3.386719.8125-6.105469 3.328125-7.183594 6.640625l-20.953125 64.5625-25.363281-181.652344c-.648437-4.648437-4.445313-8.21875-9.121094-8.585937-4.695312-.375-8.984375 2.570312-10.351562 7.058593l-31.285157 102.84375-16.335937-16.367187c-1.875-1.878906-4.417969-2.933594-7.070313-2.9375-.003906 0-.003906 0-.007812 0-2.652344 0-5.195312 1.054687-7.070312 2.925781l-25.261719 25.253906h-86.945313c-11.628906-21.140624-17.597656-40.308593-17.597656-57.097656 0-26.695312 7.140625-52.445312 20.648438-74.472656 2.886718-4.707031 1.414062-10.863281-3.296876-13.753906-4.707031-2.886719-10.863281-1.410156-13.75 3.296875-15.441406 25.175781-23.601562 54.542969-23.601562 84.929687 0 17.503906 5.023438 36.5625 15.015625 57.097656h-25.015625c-5.523438 0-10 4.476563-10 10 0 5.523438 4.476562 10 10 10h36.035156c19.363282 31.613282 49.46875 66.371094 90.175782 104.027344 56.394531 52.171875 113.59375 91.226563 114.167968 91.617188 1.695313 1.152344 3.65625 1.726562 5.621094 1.726562s3.925781-.574218 5.621094-1.726562c.574218-.390625 57.773437-39.445313 114.167968-91.617188 40.714844-37.664062 70.824219-72.425781 90.183594-104.042968h36.027344c5.523438 0 10-4.476563 10-10 0-5.523438-4.476562-10-10-10zm-139.617188 109.203124c-45.117187 41.757813-90.777343 74.964844-106.382812 85.992188-15.578125-11.007812-61.109375-44.113281-106.210938-85.835938-34.6875-32.089843-61.453124-62.101562-79.886718-89.34375h78.78125c2.652344 0 5.195312-1.054687 7.070312-2.925781l21.113282-21.105469 21.054687 21.097657c2.484375 2.484375 6.089844 3.484375 9.5 2.636719 3.410156-.851563 6.125-3.429688 7.144531-6.792969l22.945313-75.417969 25.097656 179.75c.644531 4.613281 4.386719 8.171875 9.027344 8.578125.296875.027344.589843.039063.878906.039063 4.296875 0 8.160156-2.761719 9.507813-6.910157l29.320312-90.332031 16.578125 16.609375c3.898437 3.90625 10.222656 3.917969 14.132813.023437l25.390624-25.265624h74.660157c-18.402344 27.203124-45.113281 57.164062-79.722657 89.203124zm0 0"/></svg>